<svg xmlns="http://www.w3.org/2000/svg" viewBox="0 0 1674 546" width="1674" height="546">
	<defs>
		<clipPath clipPathUnits="userSpaceOnUse" id="cp1">
			<path d="M30.21 503.45L3757.15 503.45L3757.15 13.19L30.21 13.19L30.21 503.45Z" />
		</clipPath>
		<linearGradient id="grd1" gradientUnits="userSpaceOnUse"  x1="24.208" y1="503.449" x2="24.208" y2="13.187">
			<stop offset="0" stop-color="#3b933f"  />
			<stop offset="1" stop-color="#5abe4a"  />
		</linearGradient>
	</defs>
	<style>
		tspan { white-space:pre }
		.shp0 { fill: url(#grd1) } 
		.shp1 { fill: #222221 } 
	</style>
	<g id="Layer 1">
		<g id="&lt;Group&gt;">
			<g id="&lt;Clip Group&gt;" clip-path="url(#cp1)">
				<path id="&lt;Compound Path&gt;" class="shp0" d="M169.65 86.7C174.92 111.39 177.56 139.75 177.56 171.8C177.56 212.42 171.66 252.91 159.85 293.27C148.03 333.63 131.43 371.4 110.05 406.52C88.65 441.64 62.05 473.96 30.21 503.45L58.2 503.45C124.44 463.51 172.57 419.71 202.61 372.06C232.66 324.42 247.68 272.48 247.68 216.28C247.68 177.21 240.46 140.09 226.04 104.97C211.61 69.82 191.25 39.24 164.96 13.19L144.14 13.19C155.87 37.53 164.38 62.02 169.65 86.7ZM427.31 502.9C414.53 473.47 405.76 447.08 401.02 423.73C396.27 400.37 393.9 373.9 393.9 344.31C393.9 280.66 406.34 220.74 431.25 164.54C456.16 108.35 492.82 58.26 541.25 14.27L513.68 14.27C462.15 47.64 423.92 78.22 399.02 106.01C374.11 133.81 355.34 164.01 342.71 196.6C330.09 229.2 323.78 264.06 323.78 301.17C323.78 338.48 330.07 372.95 342.66 404.6C355.25 436.25 376.52 469.01 406.5 502.9L427.31 502.9Z" />
			</g>
		</g>
		<g id="&lt;Group&gt;">
			<path id="&lt;Compound Path&gt;" class="shp1" d="M615.8 303.51L615.8 13.73L661.41 13.73L661.41 295.83C661.41 309.59 665.37 320.44 673.29 328.36C681.22 336.28 691.58 340.25 704.39 340.25L704.39 381.06C645.33 381.06 615.8 355.21 615.8 303.51Z" />
			<path id="&lt;Compound Path&gt;" class="shp1" d="M782.74 376.26L782.74 157.54L747.44 157.54L747.44 119.13L828.35 119.13L828.35 376.26L782.74 376.26ZM807.7 21.89C815.55 21.89 822.23 24.65 827.75 30.17C833.27 35.7 836.03 42.3 836.03 49.98C836.03 57.82 833.27 64.51 827.75 70.03C822.23 75.55 815.55 78.31 807.7 78.31C800.02 78.31 793.42 75.55 787.9 70.03C782.38 64.51 779.61 57.82 779.61 49.98C779.61 42.14 782.33 35.5 787.78 30.05C793.22 24.61 799.86 21.89 807.7 21.89Z" />
			<path id="&lt;Compound Path&gt;" fill-rule="evenodd" class="shp1" d="M1049.55 346.73C1031.31 369.62 1003.37 381.06 965.76 381.06C945.59 381.06 928.11 373.74 913.3 359.09C898.5 344.45 891.1 326.24 891.1 304.47C891.1 278.38 902.5 256.33 925.31 238.33C948.12 220.32 977.2 211.32 1012.58 211.32C1022.18 211.32 1033.07 213.4 1045.23 217.56C1045.23 175.95 1026.66 155.14 989.53 155.14C961.04 155.14 939.11 162.82 923.75 178.19L904.54 140.01C913.18 132.97 925.15 126.93 940.43 121.89C955.72 116.84 970.32 114.32 984.25 114.32C1021.54 114.32 1048.63 122.81 1065.52 139.77C1082.4 156.74 1090.85 183.71 1090.85 220.68L1090.85 312.87C1090.85 335.44 1097.57 350.49 1111.01 358.01L1111.01 380.82C1092.45 380.82 1078.56 378.18 1069.36 372.9C1060.15 367.61 1053.55 358.89 1049.55 346.73ZM1045.23 249.97C1030.83 246.77 1020.74 245.17 1014.98 245.17C991.93 245.17 973.12 251.09 958.56 262.94C943.99 274.78 936.71 288.79 936.71 304.95C936.71 331.68 952.48 345.05 984.01 345.05C1007.06 345.05 1027.46 334.08 1045.23 312.16L1045.23 249.97Z" />
			<path id="&lt;Compound Path&gt;" class="shp1" d="M1324.29 376.26L1324.29 226.68C1324.29 199.31 1320.17 180.15 1311.93 169.18C1303.68 158.22 1289.88 152.74 1270.51 152.74C1260.11 152.74 1249.22 155.86 1237.86 162.1C1226.49 168.34 1217.77 176.02 1211.69 185.15L1211.69 376.26L1166.07 376.26L1166.07 119.13L1197.29 119.13L1211.69 152.26C1226.73 126.97 1251.3 114.32 1285.4 114.32C1341.74 114.32 1369.91 148.58 1369.91 217.08L1369.91 376.26L1324.29 376.26Z" />
			<path id="&lt;Compound Path&gt;" fill-rule="evenodd" class="shp1" d="M1573.59 346.73C1555.34 369.62 1527.41 381.06 1489.8 381.06C1469.63 381.06 1452.14 373.74 1437.34 359.09C1422.53 344.45 1415.13 326.24 1415.13 304.47C1415.13 278.38 1426.54 256.33 1449.35 238.33C1472.15 220.32 1501.24 211.32 1536.62 211.32C1546.22 211.32 1557.1 213.4 1569.27 217.56C1569.27 175.95 1550.7 155.14 1513.57 155.14C1485.08 155.14 1463.15 162.82 1447.78 178.19L1428.58 140.01C1437.22 132.97 1449.18 126.93 1464.47 121.89C1479.75 116.84 1494.36 114.32 1508.29 114.32C1545.58 114.32 1572.67 122.81 1589.55 139.77C1606.44 156.74 1614.88 183.71 1614.88 220.68L1614.88 312.87C1614.88 335.44 1621.61 350.49 1635.05 358.01L1635.05 380.82C1616.48 380.82 1602.6 378.18 1593.4 372.9C1584.19 367.61 1577.59 358.89 1573.59 346.73ZM1569.27 249.97C1554.86 246.77 1544.78 245.17 1539.02 245.17C1515.97 245.17 1497.16 251.09 1482.6 262.94C1468.03 274.78 1460.75 288.79 1460.75 304.95C1460.75 331.68 1476.51 345.05 1508.04 345.05C1531.1 345.05 1551.5 334.08 1569.27 312.16L1569.27 249.97Z" />
		</g>
		<g id="&lt;Group&gt;">
			<path id="&lt;Compound Path&gt;" class="shp1" d="M640.1 420.79L640.1 443.01L654.7 443.01L654.7 449.92L640.1 449.92L640.1 486.49C640.1 488.45 640.16 490.05 640.28 491.3C640.4 492.54 640.56 493.5 640.76 494.18C640.96 494.98 641.2 495.58 641.48 495.98C641.68 496.3 642 496.58 642.45 496.82C642.85 497.02 643.38 497.2 644.04 497.36C644.7 497.52 645.59 497.6 646.71 497.6C647.87 497.6 648.83 497.56 649.59 497.48C650.35 497.4 650.95 497.3 651.39 497.18C651.87 497.06 652.25 496.92 652.54 496.76C652.85 496.56 653.18 496.2 653.5 495.68C653.78 495.24 654.08 494.62 654.4 493.82C654.72 493.02 655 491.92 655.24 490.51L660.7 493.7C660.5 495.42 660.22 496.81 659.86 497.87C659.5 498.93 659.16 499.78 658.84 500.43C658.44 501.15 658.02 501.71 657.58 502.11C656.94 502.67 656.12 503.17 655.12 503.61C654.24 504.01 653.13 504.36 651.79 504.66C650.44 504.96 648.77 505.11 646.77 505.11C644.77 505.11 643.02 504.95 641.51 504.63C640.01 504.31 638.73 503.92 637.67 503.46C636.61 503 635.77 502.51 635.15 501.98C634.53 501.47 634.1 501.02 633.86 500.67C633.62 500.26 633.33 499.71 632.99 498.98C632.65 498.26 632.31 497.29 632 496.07C631.67 494.85 631.4 493.34 631.18 491.54C630.96 489.73 630.85 487.55 630.85 484.99L630.85 449.92L620.88 449.92L620.88 443.01L631.57 443.01L631.57 423.67L640.1 420.79Z" />
			<path id="&lt;Compound Path&gt;" fill-rule="evenodd" class="shp1" d="M750.01 487.33C749.69 489.25 749.33 490.87 748.93 492.17C748.53 493.47 748.13 494.53 747.73 495.35C747.33 496.17 746.94 496.8 746.56 497.24C746.18 497.68 745.87 498.04 745.63 498.32C744.99 499.08 744.12 499.86 743.02 500.67C741.91 501.47 740.54 502.2 738.9 502.86C737.26 503.52 735.3 504.06 733.02 504.48C730.73 504.9 728.09 505.11 725.09 505.11C721.97 505.11 719.25 504.9 716.95 504.48C714.65 504.06 712.69 503.52 711.06 502.86C709.44 502.2 708.11 501.47 707.07 500.67C706.03 499.86 705.19 499.1 704.55 498.38C703.95 497.66 703.26 496.69 702.48 495.47C701.7 494.25 700.95 492.66 700.25 490.69C699.55 488.73 698.97 486.34 698.51 483.52C698.05 480.69 697.82 477.32 697.82 473.4C697.82 469.44 698.06 466.05 698.54 463.25C699.02 460.45 699.61 458.08 700.32 456.16C701.01 454.24 701.76 452.69 702.54 451.51C703.32 450.33 704.03 449.37 704.67 448.65C705.27 447.93 706.11 447.16 707.19 446.34C708.27 445.52 709.62 444.76 711.25 444.06C712.87 443.36 714.8 442.78 717.04 442.32C719.28 441.86 721.89 441.63 724.85 441.63C728.17 441.63 731.03 441.9 733.44 442.44C735.84 442.98 737.87 443.66 739.53 444.48C741.19 445.3 742.54 446.18 743.56 447.12C744.58 448.06 745.39 448.95 745.99 449.79C746.43 450.4 746.91 451.19 747.43 452.17C747.95 453.15 748.45 454.38 748.93 455.86C749.41 457.34 749.81 459.11 750.13 461.14C750.45 463.19 750.61 465.55 750.61 468.23C750.61 468.43 750.6 468.84 750.58 469.46C750.56 470.09 750.55 470.75 750.55 471.45C750.55 472.15 750.54 472.83 750.52 473.49C750.5 474.15 750.49 474.62 750.49 474.9L707.19 474.9C707.19 479.34 707.57 482.95 708.33 485.71C709.09 488.47 709.93 490.61 710.86 492.13C711.94 493.94 713.18 495.22 714.58 495.98C715.14 496.34 715.92 496.66 716.92 496.94C717.76 497.18 718.86 497.4 720.22 497.6C721.58 497.8 723.29 497.9 725.33 497.9C727.33 497.9 729.06 497.8 730.52 497.6C731.99 497.4 733.22 497.15 734.22 496.85C735.22 496.55 736.03 496.25 736.65 495.95C737.27 495.65 737.76 495.38 738.12 495.14C739.2 494.42 740.08 493.31 740.76 491.81C741.44 490.3 742.04 488.13 742.57 485.29L750.01 487.33ZM736.56 468.05L741.3 468.41C741.14 465.57 740.88 463.17 740.52 461.21C740.16 459.25 739.75 457.62 739.29 456.34C738.83 455.06 738.35 454.08 737.85 453.4C737.35 452.72 736.88 452.22 736.44 451.9C735.56 451.29 734.18 450.67 732.3 450.01C730.41 449.34 727.85 449.02 724.61 449.02C722.57 449.02 720.8 449.14 719.32 449.41C717.84 449.67 716.58 450 715.54 450.4C714.5 450.8 713.65 451.22 712.99 451.66C712.33 452.1 711.82 452.52 711.46 452.92C711.1 453.32 710.69 453.87 710.25 454.57C709.81 455.27 709.39 456.22 708.99 457.42C708.59 458.63 708.23 460.09 707.91 461.81C707.59 463.53 707.39 465.61 707.31 468.05L736.56 468.05Z" />
			<path id="&lt;Compound Path&gt;" class="shp1" d="M843.83 487.57C843.63 489.41 843.35 490.99 843.01 492.29C842.67 493.59 842.27 494.7 841.81 495.62C841.35 496.54 840.88 497.29 840.4 497.87C839.92 498.45 839.48 498.94 839.08 499.34C838.6 499.82 837.89 500.39 836.95 501.06C836.01 501.71 834.77 502.35 833.23 502.95C831.68 503.55 829.82 504.06 827.64 504.48C825.46 504.9 822.87 505.11 819.86 505.11C816.74 505.11 813.98 504.86 811.57 504.36C809.17 503.86 807.08 503.24 805.3 502.5C803.52 501.76 802.04 500.96 800.88 500.09C799.72 499.23 798.82 498.44 798.18 497.72C797.54 497 796.85 496.04 796.11 494.84C795.37 493.64 794.69 492.08 794.07 490.15C793.45 488.23 792.93 485.89 792.51 483.13C792.08 480.36 791.88 477.04 791.88 473.16C791.88 469.35 792.08 466.09 792.51 463.37C792.93 460.65 793.46 458.34 794.1 456.46C794.74 454.58 795.43 453.05 796.17 451.87C796.91 450.69 797.6 449.74 798.24 449.02C798.88 448.29 799.78 447.5 800.94 446.64C802.1 445.78 803.58 444.97 805.36 444.21C807.14 443.45 809.23 442.82 811.63 442.32C814.04 441.82 816.8 441.57 819.92 441.57C822.85 441.57 825.38 441.79 827.52 442.23C829.66 442.67 831.48 443.19 832.99 443.79C834.49 444.39 835.7 445.02 836.62 445.68C837.54 446.34 838.24 446.91 838.72 447.39C839.12 447.79 839.55 448.29 840.01 448.89C840.47 449.5 840.92 450.25 841.36 451.18C841.8 452.1 842.21 453.22 842.6 454.54C842.98 455.86 843.27 457.46 843.47 459.35L835.9 461.45C835.66 460 835.42 458.79 835.18 457.81C834.94 456.83 834.7 456.02 834.46 455.38C834.22 454.74 833.98 454.23 833.74 453.85C833.5 453.47 833.27 453.16 833.08 452.92C832.67 452.48 832.13 452.03 831.45 451.57C830.77 451.11 829.9 450.7 828.84 450.33C827.78 449.98 826.5 449.67 825 449.43C823.5 449.19 821.72 449.07 819.68 449.07C817.2 449.07 815.11 449.22 813.41 449.53C811.7 449.82 810.28 450.21 809.14 450.67C808 451.13 807.09 451.64 806.41 452.2C805.73 452.76 805.19 453.3 804.79 453.82C804.39 454.34 803.98 455.01 803.56 455.83C803.14 456.65 802.75 457.78 802.42 459.22C802.08 460.66 801.79 462.52 801.57 464.78C801.35 467.04 801.24 469.88 801.24 473.28C801.24 476.8 801.36 479.72 801.61 482.04C801.85 484.37 802.15 486.27 802.51 487.75C802.87 489.23 803.27 490.39 803.71 491.21C804.15 492.03 804.59 492.7 805.03 493.22C805.43 493.78 805.98 494.33 806.68 494.87C807.38 495.41 808.31 495.91 809.47 496.37C810.63 496.83 812.06 497.2 813.77 497.48C815.47 497.76 817.54 497.9 819.98 497.9C822.06 497.9 823.87 497.78 825.39 497.54C826.91 497.3 828.21 496.99 829.29 496.61C830.37 496.23 831.25 495.81 831.93 495.35C832.61 494.89 833.18 494.44 833.62 494C833.86 493.76 834.1 493.45 834.34 493.07C834.58 492.69 834.82 492.18 835.06 491.54C835.3 490.9 835.55 490.08 835.81 489.1C836.07 488.12 836.32 486.91 836.56 485.47L843.83 487.57Z" />
			<path id="&lt;Compound Path&gt;" class="shp1" d="M887.19 417.18L896.38 417.18L896.38 450.57C897.18 449.46 898.17 448.37 899.35 447.3C900.53 446.24 901.96 445.29 903.62 444.45C905.28 443.61 907.2 442.93 909.38 442.41C911.57 441.89 914.08 441.63 916.92 441.63C919.6 441.63 921.94 441.83 923.95 442.23C925.95 442.63 927.64 443.11 929.02 443.67C930.4 444.23 931.52 444.83 932.38 445.47C933.25 446.11 933.9 446.67 934.34 447.15C934.86 447.75 935.38 448.5 935.9 449.41C936.42 450.3 936.88 451.59 937.28 453.25C937.68 454.91 938.01 457.05 938.27 459.67C938.53 462.3 938.66 465.61 938.66 469.61L938.66 503.73L929.41 503.73L929.41 466.73C929.41 464.33 929.32 462.35 929.14 460.79C928.96 459.22 928.73 457.96 928.45 457C928.17 456.04 927.89 455.31 927.61 454.81C927.33 454.31 927.11 453.9 926.95 453.58C926.67 453.1 926.27 452.6 925.75 452.08C925.23 451.56 924.49 451.09 923.53 450.67C922.56 450.25 921.32 449.89 919.8 449.61C918.28 449.33 916.36 449.19 914.04 449.19C911.59 449.19 909.51 449.36 907.79 449.67C906.07 450 904.62 450.4 903.44 450.88C902.26 451.36 901.32 451.9 900.64 452.5C899.96 453.1 899.44 453.68 899.08 454.24C898.84 454.6 898.57 455.07 898.27 455.65C897.97 456.23 897.68 457.05 897.4 458.11C897.12 459.18 896.88 460.53 896.68 462.17C896.48 463.81 896.38 465.87 896.38 468.35L896.38 503.73L887.19 503.73L887.19 417.18Z" />
			<path id="&lt;Compound Path&gt;" class="shp1" d="M1033.08 449.19C1033.72 450.2 1034.3 451.56 1034.82 453.28C1035.26 454.76 1035.67 456.73 1036.05 459.19C1036.43 461.66 1036.62 464.75 1036.62 468.47L1036.62 503.73L1027.37 503.73L1027.37 466.67C1027.37 464.27 1027.27 462.3 1027.07 460.75C1026.87 459.21 1026.64 457.96 1026.38 457C1026.12 456.04 1025.84 455.31 1025.54 454.81C1025.24 454.31 1025.01 453.92 1024.85 453.64C1024.53 453.16 1024.11 452.65 1023.59 452.11C1023.06 451.57 1022.33 451.09 1021.37 450.67C1020.4 450.25 1019.2 449.89 1017.76 449.61C1016.32 449.33 1014.52 449.19 1012.36 449.19C1009.83 449.19 1007.7 449.36 1005.96 449.67C1004.22 450 1002.76 450.41 1001.58 450.91C1000.39 451.41 999.47 451.96 998.81 452.56C998.15 453.16 997.64 453.74 997.28 454.3C996.92 454.86 996.58 455.55 996.26 456.37C995.94 457.19 995.66 458.25 995.42 459.55C995.18 460.86 994.99 462.43 994.85 464.27C994.71 466.11 994.64 468.35 994.64 470.99L994.64 503.73L985.39 503.73L985.39 443.01L993.02 443.01L993.74 451.9C994.46 450.86 995.4 449.74 996.56 448.54C997.72 447.33 999.16 446.22 1000.89 445.2C1002.61 444.18 1004.65 443.33 1007.01 442.65C1009.37 441.97 1012.14 441.63 1015.3 441.63C1018.86 441.63 1021.79 442.03 1024.1 442.83C1026.4 443.63 1028.21 444.49 1029.53 445.41C1031.09 446.53 1032.28 447.79 1033.08 449.19Z" />
			<path id="&lt;Compound Path&gt;" fill-rule="evenodd" class="shp1" d="M1108.33 441.63C1111.45 441.63 1114.22 441.88 1116.65 442.38C1119.07 442.88 1121.17 443.5 1122.96 444.24C1124.74 444.98 1126.22 445.77 1127.4 446.61C1128.58 447.45 1129.49 448.21 1130.13 448.89C1130.77 449.61 1131.46 450.57 1132.2 451.75C1132.95 452.93 1133.64 454.46 1134.28 456.34C1134.92 458.22 1135.45 460.54 1135.87 463.28C1136.29 466.02 1136.5 469.31 1136.5 473.16C1136.5 477 1136.29 480.33 1135.87 483.13C1135.45 485.93 1134.92 488.3 1134.28 490.25C1133.64 492.19 1132.95 493.77 1132.2 494.99C1131.46 496.21 1130.77 497.18 1130.13 497.9C1129.49 498.62 1128.59 499.4 1127.43 500.24C1126.27 501.08 1124.79 501.87 1123.02 502.59C1121.23 503.31 1119.13 503.91 1116.71 504.39C1114.29 504.87 1111.49 505.11 1108.33 505.11C1105.21 505.11 1102.45 504.87 1100.04 504.39C1097.64 503.91 1095.56 503.3 1093.8 502.56C1092.04 501.82 1090.58 501.02 1089.44 500.19C1088.3 499.34 1087.41 498.56 1086.77 497.84C1086.13 497.12 1085.44 496.15 1084.7 494.93C1083.96 493.71 1083.27 492.13 1082.63 490.21C1081.99 488.29 1081.46 485.95 1081.03 483.19C1080.62 480.42 1080.4 477.14 1080.4 473.34C1080.4 469.49 1080.62 466.2 1081.03 463.46C1081.46 460.72 1081.97 458.38 1082.6 456.46C1083.22 454.54 1083.9 452.99 1084.64 451.81C1085.38 450.63 1086.07 449.67 1086.71 448.95C1087.35 448.23 1088.25 447.45 1089.41 446.61C1090.57 445.77 1092.05 444.98 1093.83 444.24C1095.61 443.5 1097.69 442.88 1100.07 442.38C1102.45 441.88 1105.21 441.63 1108.33 441.63ZM1108.33 449.13C1105.93 449.13 1103.88 449.28 1102.17 449.55C1100.47 449.84 1099.04 450.21 1097.88 450.67C1096.72 451.13 1095.78 451.63 1095.06 452.17C1094.34 452.71 1093.78 453.24 1093.38 453.76C1092.98 454.28 1092.57 454.96 1092.15 455.8C1091.72 456.64 1091.34 457.81 1091 459.31C1090.66 460.82 1090.38 462.72 1090.16 465.02C1089.94 467.32 1089.83 470.18 1089.83 473.58C1089.83 476.9 1089.94 479.68 1090.16 481.93C1090.38 484.17 1090.68 486.03 1091.03 487.51C1091.4 488.99 1091.79 490.17 1092.21 491.02C1092.63 491.89 1093.04 492.56 1093.44 493.04C1093.84 493.52 1094.41 494.03 1095.15 494.57C1095.89 495.11 1096.86 495.61 1098.06 496.07C1099.26 496.53 1100.73 496.9 1102.48 497.18C1104.22 497.46 1106.29 497.6 1108.69 497.6C1111.05 497.6 1113.08 497.45 1114.79 497.15C1116.49 496.85 1117.92 496.48 1119.08 496.04C1120.24 495.6 1121.17 495.1 1121.87 494.54C1122.57 493.98 1123.13 493.44 1123.53 492.92C1123.93 492.4 1124.34 491.72 1124.76 490.88C1125.18 490.03 1125.56 488.87 1125.9 487.39C1126.24 485.91 1126.52 484.05 1126.74 481.8C1126.96 479.56 1127.07 476.78 1127.07 473.46C1127.07 469.97 1126.95 467.07 1126.71 464.75C1126.47 462.43 1126.16 460.51 1125.78 459.01C1125.4 457.51 1124.99 456.34 1124.55 455.5C1124.11 454.66 1123.69 454 1123.29 453.52C1122.84 453.04 1122.26 452.54 1121.54 452.02C1120.82 451.5 1119.87 451.03 1118.69 450.61C1117.51 450.18 1116.07 449.84 1114.37 449.55C1112.67 449.28 1110.65 449.13 1108.33 449.13Z" />
			<path id="&lt;Compound Path&gt;" class="shp1" d="M1181.31 417.18L1190.5 417.18L1190.5 503.73L1181.31 503.73L1181.31 417.18Z" />
			<path id="&lt;Compound Path&gt;" fill-rule="evenodd" class="shp1" d="M1263.23 441.63C1266.35 441.63 1269.12 441.88 1271.55 442.38C1273.97 442.88 1276.07 443.5 1277.85 444.24C1279.63 444.98 1281.11 445.77 1282.29 446.61C1283.48 447.45 1284.39 448.21 1285.03 448.89C1285.67 449.61 1286.36 450.57 1287.1 451.75C1287.84 452.93 1288.53 454.46 1289.17 456.34C1289.81 458.22 1290.34 460.54 1290.76 463.28C1291.18 466.02 1291.39 469.31 1291.39 473.16C1291.39 477 1291.18 480.33 1290.76 483.13C1290.34 485.93 1289.81 488.3 1289.17 490.25C1288.53 492.19 1287.84 493.77 1287.1 494.99C1286.36 496.21 1285.67 497.18 1285.03 497.9C1284.39 498.62 1283.48 499.4 1282.32 500.24C1281.16 501.08 1279.69 501.87 1277.91 502.59C1276.13 503.31 1274.03 503.91 1271.6 504.39C1269.18 504.87 1266.39 505.11 1263.23 505.11C1260.11 505.11 1257.34 504.87 1254.94 504.39C1252.54 503.91 1250.46 503.3 1248.69 502.56C1246.93 501.82 1245.48 501.02 1244.34 500.19C1243.2 499.34 1242.3 498.56 1241.67 497.84C1241.02 497.12 1240.34 496.15 1239.59 494.93C1238.85 493.71 1238.16 492.13 1237.52 490.21C1236.88 488.29 1236.35 485.95 1235.93 483.19C1235.51 480.42 1235.3 477.14 1235.3 473.34C1235.3 469.49 1235.51 466.2 1235.93 463.46C1236.35 460.72 1236.87 458.38 1237.49 456.46C1238.11 454.54 1238.79 452.99 1239.53 451.81C1240.27 450.63 1240.96 449.67 1241.61 448.95C1242.25 448.23 1243.15 447.45 1244.31 446.61C1245.47 445.77 1246.94 444.98 1248.72 444.24C1250.5 443.5 1252.59 442.88 1254.97 442.38C1257.35 441.88 1260.11 441.63 1263.23 441.63ZM1263.23 449.13C1260.83 449.13 1258.77 449.28 1257.07 449.55C1255.37 449.84 1253.94 450.21 1252.78 450.67C1251.62 451.13 1250.67 451.63 1249.95 452.17C1249.23 452.71 1248.67 453.24 1248.27 453.76C1247.87 454.28 1247.46 454.96 1247.04 455.8C1246.62 456.64 1246.24 457.81 1245.9 459.31C1245.56 460.82 1245.28 462.72 1245.06 465.02C1244.84 467.32 1244.73 470.18 1244.73 473.58C1244.73 476.9 1244.84 479.68 1245.06 481.93C1245.28 484.17 1245.57 486.03 1245.93 487.51C1246.29 488.99 1246.68 490.17 1247.1 491.02C1247.52 491.89 1247.93 492.56 1248.33 493.04C1248.73 493.52 1249.3 494.03 1250.04 494.57C1250.78 495.11 1251.76 495.61 1252.96 496.07C1254.16 496.53 1255.63 496.9 1257.37 497.18C1259.11 497.46 1261.18 497.6 1263.59 497.6C1265.95 497.6 1267.98 497.45 1269.68 497.15C1271.38 496.85 1272.81 496.48 1273.98 496.04C1275.14 495.6 1276.07 495.1 1276.77 494.54C1277.47 493.98 1278.02 493.44 1278.42 492.92C1278.82 492.4 1279.23 491.72 1279.65 490.88C1280.07 490.03 1280.46 488.87 1280.79 487.39C1281.13 485.91 1281.42 484.05 1281.64 481.8C1281.86 479.56 1281.97 476.78 1281.97 473.46C1281.97 469.97 1281.84 467.07 1281.6 464.75C1281.36 462.43 1281.05 460.51 1280.67 459.01C1280.29 457.51 1279.88 456.34 1279.44 455.5C1279 454.66 1278.58 454 1278.18 453.52C1277.74 453.04 1277.16 452.54 1276.44 452.02C1275.72 451.5 1274.77 451.03 1273.59 450.61C1272.4 450.18 1270.96 449.84 1269.26 449.55C1267.56 449.28 1265.55 449.13 1263.23 449.13Z" />
			<path id="&lt;Compound Path&gt;" fill-rule="evenodd" class="shp1" d="M1377.34 494.72C1376.5 496.08 1375.52 497.35 1374.4 498.53C1373.28 499.71 1371.93 500.75 1370.34 501.63C1368.76 502.51 1366.91 503.2 1364.79 503.7C1362.67 504.2 1360.17 504.45 1357.28 504.45C1354.4 504.45 1351.88 504.2 1349.71 503.7C1347.55 503.2 1345.71 502.58 1344.19 501.83C1342.67 501.1 1341.43 500.29 1340.47 499.43C1339.51 498.57 1338.76 497.78 1338.24 497.06C1337.68 496.34 1337.11 495.41 1336.53 494.27C1335.95 493.13 1335.41 491.64 1334.91 489.79C1334.41 487.95 1334 485.69 1333.68 483.01C1333.36 480.33 1333.2 477.08 1333.2 473.28C1333.2 469.27 1333.36 465.89 1333.68 463.13C1334 460.37 1334.42 458.05 1334.94 456.19C1335.46 454.33 1336.01 452.85 1336.59 451.75C1337.17 450.65 1337.74 449.74 1338.3 449.02C1338.82 448.29 1339.58 447.5 1340.58 446.64C1341.59 445.78 1342.87 444.98 1344.43 444.24C1345.99 443.5 1347.85 442.88 1350.01 442.38C1352.18 441.88 1354.72 441.63 1357.64 441.63C1361.2 441.63 1364.2 442.06 1366.62 442.92C1369.04 443.78 1371.05 444.79 1372.66 445.95C1374.26 447.11 1375.5 448.32 1376.38 449.58C1377.26 450.85 1377.94 451.86 1378.42 452.62L1379.56 443.01L1386.65 443.01L1386.65 500C1386.65 503.41 1386.42 506.35 1385.96 508.83C1385.5 511.32 1384.94 513.42 1384.28 515.14C1383.62 516.86 1382.92 518.25 1382.18 519.31C1381.44 520.37 1380.79 521.18 1380.22 521.75C1379.63 522.3 1378.8 522.95 1377.76 523.67C1376.72 524.39 1375.39 525.06 1373.77 525.68C1372.15 526.3 1370.2 526.82 1367.94 527.24C1365.68 527.66 1363.05 527.87 1360.04 527.87C1357.2 527.87 1354.72 527.7 1352.6 527.36C1350.47 527.02 1348.66 526.62 1347.16 526.16C1345.66 525.7 1344.45 525.24 1343.53 524.78C1342.61 524.32 1341.95 523.95 1341.54 523.67C1341.15 523.43 1340.67 523.04 1340.1 522.5C1339.54 521.96 1338.99 521.25 1338.45 520.39C1337.91 519.53 1337.41 518.47 1336.95 517.21C1336.49 515.95 1336.18 514.46 1336.02 512.74L1341.25 509.91C1342.05 511.68 1342.77 513.07 1343.41 514.09C1344.05 515.11 1344.61 515.9 1345.09 516.46C1345.65 517.14 1346.17 517.6 1346.65 517.84C1347.21 518.32 1348.07 518.76 1349.23 519.16C1350.23 519.48 1351.58 519.78 1353.29 520.06C1354.99 520.34 1357.22 520.48 1359.98 520.48C1362.06 520.48 1363.91 520.34 1365.51 520.06C1367.11 519.78 1368.5 519.43 1369.68 519.01C1370.87 518.59 1371.83 518.13 1372.57 517.63C1373.31 517.13 1373.86 516.64 1374.22 516.16C1374.46 515.84 1374.77 515.39 1375.15 514.81C1375.53 514.23 1375.89 513.35 1376.23 512.17C1376.57 510.98 1376.86 509.45 1377.1 507.57C1377.34 505.69 1377.44 503.29 1377.4 500.36L1377.34 494.72ZM1359.74 449.02C1357.42 449.02 1355.46 449.16 1353.86 449.43C1352.26 449.72 1350.93 450.08 1349.87 450.52C1348.8 450.96 1347.97 451.44 1347.37 451.96C1346.77 452.48 1346.29 452.98 1345.93 453.46C1345.57 453.94 1345.2 454.58 1344.82 455.38C1344.44 456.18 1344.09 457.3 1343.77 458.74C1343.45 460.18 1343.18 462.02 1342.96 464.24C1342.74 466.46 1342.63 469.25 1342.63 472.62C1342.63 475.98 1342.73 478.8 1342.93 481.08C1343.13 483.37 1343.4 485.25 1343.74 486.73C1344.08 488.21 1344.44 489.38 1344.82 490.25C1345.2 491.11 1345.57 491.8 1345.93 492.32C1346.29 492.84 1346.77 493.37 1347.37 493.91C1347.97 494.45 1348.81 494.93 1349.89 495.35C1350.98 495.77 1352.33 496.12 1353.95 496.4C1355.57 496.68 1357.56 496.82 1359.93 496.82C1362.29 496.82 1364.27 496.69 1365.87 496.43C1367.47 496.17 1368.8 495.83 1369.86 495.41C1370.92 494.99 1371.76 494.52 1372.39 494C1373.01 493.48 1373.5 492.98 1373.86 492.5C1374.22 492.02 1374.61 491.38 1375.03 490.58C1375.45 489.77 1375.84 488.67 1376.2 487.27C1376.56 485.87 1376.86 484.1 1377.1 481.96C1377.34 479.82 1377.46 477.14 1377.46 473.94C1377.46 470.58 1377.34 467.67 1377.1 465.23C1376.86 462.79 1376.56 460.75 1376.2 459.11C1375.84 457.46 1375.44 456.17 1375 455.23C1374.56 454.29 1374.14 453.6 1373.74 453.16C1373.3 452.72 1372.76 452.25 1372.12 451.75C1371.47 451.25 1370.63 450.8 1369.56 450.4C1368.5 450 1367.18 449.67 1365.6 449.41C1364.02 449.14 1362.06 449.02 1359.74 449.02Z" />
			<path id="&lt;Compound Path&gt;" class="shp1" d="M1433.8 503.73L1433.8 443.01L1443.05 443.01L1443.05 503.73L1433.8 503.73ZM1444 425.35C1444 428.44 1441.49 430.95 1438.4 430.95C1435.31 430.95 1432.8 428.44 1432.8 425.35C1432.8 422.26 1435.31 419.75 1438.4 419.75C1441.49 419.75 1444 422.26 1444 425.35Z" />
			<path id="&lt;Compound Path&gt;" fill-rule="evenodd" class="shp1" d="M1539.62 487.33C1539.3 489.25 1538.94 490.87 1538.54 492.17C1538.14 493.47 1537.74 494.53 1537.34 495.35C1536.94 496.17 1536.55 496.8 1536.17 497.24C1535.79 497.68 1535.48 498.04 1535.24 498.32C1534.6 499.08 1533.73 499.86 1532.63 500.67C1531.52 501.47 1530.15 502.2 1528.51 502.86C1526.87 503.52 1524.91 504.06 1522.63 504.48C1520.34 504.9 1517.7 505.11 1514.7 505.11C1511.58 505.11 1508.87 504.9 1506.56 504.48C1504.26 504.06 1502.3 503.52 1500.68 502.86C1499.05 502.2 1497.72 501.47 1496.68 500.67C1495.64 499.86 1494.8 499.1 1494.16 498.38C1493.56 497.66 1492.87 496.69 1492.09 495.47C1491.31 494.25 1490.57 492.66 1489.87 490.69C1489.17 488.73 1488.58 486.34 1488.12 483.52C1487.66 480.69 1487.43 477.32 1487.43 473.4C1487.43 469.44 1487.67 466.05 1488.15 463.25C1488.63 460.45 1489.22 458.08 1489.92 456.16C1490.63 454.24 1491.37 452.69 1492.15 451.51C1492.93 450.33 1493.64 449.37 1494.28 448.65C1494.88 447.93 1495.72 447.16 1496.8 446.34C1497.88 445.52 1499.24 444.76 1500.86 444.06C1502.48 443.36 1504.41 442.78 1506.65 442.32C1508.89 441.86 1511.5 441.63 1514.46 441.63C1517.78 441.63 1520.65 441.9 1523.05 442.44C1525.45 442.98 1527.48 443.66 1529.14 444.48C1530.8 445.3 1532.15 446.18 1533.17 447.12C1534.19 448.06 1535 448.95 1535.6 449.79C1536.04 450.4 1536.52 451.19 1537.04 452.17C1537.56 453.15 1538.06 454.38 1538.54 455.86C1539.02 457.34 1539.42 459.11 1539.74 461.14C1540.06 463.19 1540.22 465.55 1540.22 468.23C1540.22 468.43 1540.21 468.84 1540.2 469.46C1540.17 470.09 1540.17 470.75 1540.17 471.45C1540.17 472.15 1540.15 472.83 1540.13 473.49C1540.11 474.15 1540.1 474.62 1540.1 474.9L1496.8 474.9C1496.8 479.34 1497.18 482.95 1497.94 485.71C1498.71 488.47 1499.54 490.61 1500.47 492.13C1501.55 493.94 1502.79 495.22 1504.19 495.98C1504.75 496.34 1505.53 496.66 1506.53 496.94C1507.37 497.18 1508.47 497.4 1509.83 497.6C1511.2 497.8 1512.9 497.9 1514.94 497.9C1516.94 497.9 1518.67 497.8 1520.14 497.6C1521.6 497.4 1522.83 497.15 1523.83 496.85C1524.83 496.55 1525.64 496.25 1526.26 495.95C1526.88 495.65 1527.37 495.38 1527.73 495.14C1528.81 494.42 1529.7 493.31 1530.38 491.81C1531.05 490.3 1531.66 488.13 1532.18 485.29L1539.62 487.33ZM1526.17 468.05L1530.91 468.41C1530.76 465.57 1530.49 463.17 1530.13 461.21C1529.77 459.25 1529.36 457.62 1528.9 456.34C1528.44 455.06 1527.96 454.08 1527.46 453.4C1526.96 452.72 1526.49 452.22 1526.05 451.9C1525.17 451.29 1523.79 450.67 1521.91 450.01C1520.02 449.34 1517.46 449.02 1514.22 449.02C1512.18 449.02 1510.42 449.14 1508.94 449.41C1507.45 449.67 1506.19 450 1505.15 450.4C1504.11 450.8 1503.26 451.22 1502.6 451.66C1501.94 452.1 1501.43 452.52 1501.07 452.92C1500.71 453.32 1500.3 453.87 1499.87 454.57C1499.43 455.27 1499 456.22 1498.61 457.42C1498.2 458.63 1497.84 460.09 1497.52 461.81C1497.2 463.53 1497 465.61 1496.92 468.05L1526.17 468.05Z" />
			<path id="&lt;Compound Path&gt;" class="shp1" d="M1580.83 490.03L1588.34 486.91C1588.78 489.19 1589.4 491.06 1590.2 492.5C1591 493.94 1592.03 495.06 1593.29 495.86C1594.55 496.66 1596.05 497.2 1597.79 497.48C1599.54 497.76 1601.59 497.9 1603.95 497.9C1605.59 497.9 1607.08 497.78 1608.42 497.54C1609.76 497.3 1610.94 497.01 1611.94 496.67C1612.94 496.33 1613.76 495.96 1614.4 495.56C1615.04 495.16 1615.52 494.8 1615.84 494.48C1616.28 494.08 1616.72 493.33 1617.16 492.23C1617.6 491.13 1617.82 489.77 1617.82 488.17C1617.82 486.49 1617.61 485.12 1617.19 484.06C1616.77 483 1616.09 482.11 1615.15 481.39C1614.21 480.67 1613 480.06 1611.52 479.55C1610.03 479.05 1608.25 478.54 1606.17 478.02C1602.49 477.02 1599.15 476.05 1596.14 475.11C1593.14 474.17 1590.57 473.02 1588.45 471.66C1586.33 470.3 1584.7 468.6 1583.56 466.58C1582.42 464.56 1581.85 461.95 1581.85 458.74C1581.85 457.3 1581.99 455.99 1582.27 454.81C1582.55 453.63 1582.9 452.58 1583.32 451.66C1583.74 450.74 1584.2 449.94 1584.7 449.29C1585.2 448.62 1585.65 448.09 1586.05 447.69C1586.57 447.17 1587.33 446.56 1588.34 445.86C1589.33 445.16 1590.57 444.5 1592.06 443.88C1593.54 443.26 1595.27 442.73 1597.25 442.29C1599.23 441.85 1601.47 441.63 1603.95 441.63C1608.23 441.63 1611.71 442.12 1614.37 443.1C1617.03 444.08 1619.12 445.29 1620.64 446.73C1622.17 448.17 1623.22 449.7 1623.8 451.33C1624.38 452.95 1624.75 454.42 1624.91 455.74L1617.88 458.87C1617.4 456.58 1616.71 454.78 1615.81 453.46C1614.91 452.14 1613.85 451.15 1612.63 450.49C1611.4 449.82 1610.04 449.41 1608.54 449.26C1607.04 449.09 1605.43 449.02 1603.71 449.02C1602.15 449.02 1600.75 449.12 1599.5 449.34C1598.26 449.57 1597.18 449.82 1596.26 450.13C1595.34 450.42 1594.58 450.76 1593.98 451.12C1593.38 451.48 1592.92 451.8 1592.6 452.08C1592.2 452.44 1591.77 453.08 1591.31 454C1590.85 454.92 1590.62 456.2 1590.62 457.84C1590.7 459.33 1590.92 460.56 1591.28 461.54C1591.64 462.52 1592.27 463.36 1593.17 464.06C1594.07 464.76 1595.29 465.38 1596.83 465.92C1598.37 466.46 1600.39 467.03 1602.87 467.63C1604.35 468.07 1605.97 468.51 1607.73 468.96C1609.49 469.39 1611.27 469.92 1613.05 470.51C1614.83 471.12 1616.55 471.85 1618.21 472.71C1619.87 473.57 1621.35 474.64 1622.63 475.92C1623.91 477.2 1624.94 478.74 1625.72 480.54C1626.5 482.35 1626.89 484.49 1626.89 486.97C1626.89 488.49 1626.75 489.91 1626.47 491.21C1626.19 492.51 1625.83 493.67 1625.39 494.69C1624.95 495.71 1624.45 496.6 1623.89 497.36C1623.33 498.12 1622.77 498.74 1622.21 499.22C1621.69 499.66 1620.95 500.21 1619.99 500.87C1619.02 501.54 1617.79 502.19 1616.29 502.83C1614.79 503.47 1612.98 504.01 1610.86 504.45C1608.73 504.89 1606.27 505.11 1603.47 505.11C1599.3 505.11 1595.87 504.73 1593.17 503.97C1590.47 503.21 1588.28 502.15 1586.62 500.78C1584.96 499.42 1583.7 497.83 1582.84 496.01C1581.98 494.19 1581.31 492.2 1580.83 490.03Z" />
		</g>
	</g>
</svg>